Katibeh-Latin-Kerning, With Production Names.ufo
<glyph name="plus" format="1">
  <advance width="404"/>
  <unicode hex="002B"/>
  <outline>
    <contour>
      <point x="64" y="207" type="line"/>
      <point x="177" y="207" type="line"/>
      <point x="177" y="95" type="line"/>
      <point x="226" y="95" type="line"/>
      <point x="226" y="207" type="line"/>
      <point x="339" y="207" type="line"/>
      <point x="339" y="257" type="line"/>
      <point x="226" y="257" type="line"/>
      <point x="226" y="370" type="line"/>
      <point x="177" y="370" type="line"/>
      <point x="177" y="257" type="line"/>
      <point x="64" y="257" type="line"/>
    </contour>
  </outline>
</glyph>
<glyph name="eight" format="1">
  <advance width="409"/>
  <unicode hex="0038"/>
  <outline>
    <contour>
      <point x="179" y="228" type="line"/>
      <point x="90" y="216"/>
      <point x="33" y="166"/>
      <point x="33" y="99" type="curve" smooth="yes"/>
      <point x="33" y="32"/>
      <point x="94" y="-10"/>
      <point x="193" y="-10" type="curve" smooth="yes"/>
      <point x="307" y="-10"/>
      <point x="380" y="42"/>
      <point x="380" y="123" type="curve" smooth="yes"/>
      <point x="380" y="267"/>
      <point x="138" y="262"/>
      <point x="138" y="389" type="curve" smooth="yes"/>
      <point x="138" y="425"/>
      <point x="170" y="453"/>
      <point x="210" y="453" type="curve" smooth="yes"/>
      <point x="251" y="453"/>
      <point x="282" y="421"/>
      <point x="282" y="374" type="curve" smooth="yes"/>
      <point x="282" y="325"/>
      <point x="260" y="284"/>
      <point x="224" y="258" type="curve"/>
      <point x="232" y="250" type="line"/>
      <point x="313" y="261"/>
      <point x="370" y="305"/>
      <point x="370" y="367" type="curve" smooth="yes"/>
      <point x="370" y="434"/>
      <point x="312" y="477"/>
      <point x="217" y="477" type="curve" smooth="yes"/>
      <point x="111" y="477"/>
      <point x="40" y="424"/>
      <point x="40" y="346" type="curve" smooth="yes"/>
      <point x="40" y="194"/>
      <point x="280" y="195"/>
      <point x="280" y="84" type="curve" smooth="yes"/>
      <point x="280" y="42"/>
      <point x="247" y="13"/>
      <point x="199" y="13" type="curve" smooth="yes"/>
      <point x="154" y="13"/>
      <point x="120" y="47"/>
      <point x="120" y="98" type="curve" smooth="yes"/>
      <point x="120" y="148"/>
      <point x="145" y="195"/>
      <point x="185" y="222" type="curve"/>
    </contour>
  </outline>
</glyph>
<glyph name="equal" format="1">
  <advance width="405"/>
  <unicode hex="003D"/>
  <outline>
    <contour>
      <point x="65" y="137" type="line"/>
      <point x="340" y="137" type="line"/>
      <point x="340" y="187" type="line"/>
      <point x="65" y="187" type="line"/>
    </contour>
    <contour>
      <point x="65" y="278" type="line"/>
      <point x="340" y="278" type="line"/>
      <point x="340" y="327" type="line"/>
      <point x="65" y="327" type="line"/>
    </contour>
  </outline>
</glyph>
<glyph name="H" format="1">
  <advance width="530"/>
  <unicode hex="0048"/>
  <outline>
    <contour>
      <point x="485" y="0" type="line"/>
      <point x="493" y="12" type="line"/>
      <point x="456" y="44"/>
      <point x="450" y="59"/>
      <point x="450" y="126" type="curve" smooth="yes"/>
      <point x="450" y="368" type="line" smooth="yes"/>
      <point x="450" y="417"/>
      <point x="457" y="429"/>
      <point x="496" y="451" type="curve"/>
      <point x="488" y="467" type="line"/>
      <point x="318" y="467" type="line"/>
      <point x="310" y="454" type="line"/>
      <point x="348" y="422"/>
      <point x="354" y="407"/>
      <point x="354" y="343" type="curve" smooth="yes"/>
      <point x="354" y="83" type="line" smooth="yes"/>
      <point x="354" y="38"/>
      <point x="347" y="30"/>
      <point x="303" y="18" type="curve"/>
      <point x="309" y="0" type="line"/>
    </contour>
    <contour>
      <point x="212" y="0" type="line"/>
      <point x="219" y="12" type="line"/>
      <point x="182" y="44"/>
      <point x="177" y="59"/>
      <point x="177" y="126" type="curve" smooth="yes"/>
      <point x="177" y="368" type="line" smooth="yes"/>
      <point x="177" y="417"/>
      <point x="184" y="429"/>
      <point x="222" y="451" type="curve"/>
      <point x="215" y="467" type="line"/>
      <point x="45" y="467" type="line"/>
      <point x="37" y="454" type="line"/>
      <point x="75" y="422"/>
      <point x="81" y="407"/>
      <point x="81" y="343" type="curve" smooth="yes"/>
      <point x="81" y="83" type="line" smooth="yes"/>
      <point x="81" y="38"/>
      <point x="73" y="30"/>
      <point x="30" y="18" type="curve"/>
      <point x="36" y="0" type="line"/>
    </contour>
    <contour>
      <point x="395" y="223" type="line"/>
      <point x="395" y="251" type="line"/>
      <point x="135" y="251" type="line"/>
      <point x="135" y="223" type="line"/>
    </contour>
    <contour>
      <point x="265" y="0" type="move" name="bottom"/>
    </contour>
    <contour>
      <point x="265" y="467" type="move" name="top"/>
    </contour>
    <contour>
      <point x="13" y="455" type="move" name="topleft"/>
    </contour>
    <contour>
      <point x="265" y="325" type="move" name="center"/>
    </contour>
  </outline>
</glyph>
<glyph name="I" format="1">
  <advance width="252"/>
  <unicode hex="0049"/>
  <outline>
    <contour>
      <point x="209" y="0" type="line"/>
      <point x="217" y="12" type="line"/>
      <point x="180" y="44"/>
      <point x="174" y="60"/>
      <point x="174" y="122" type="curve" smooth="yes"/>
      <point x="174" y="368" type="line" smooth="yes"/>
      <point x="174" y="417"/>
      <point x="181" y="429"/>
      <point x="219" y="451" type="curve"/>
      <point x="212" y="467" type="line"/>
      <point x="43" y="467" type="line"/>
      <point x="34" y="454" type="line"/>
      <point x="72" y="422"/>
      <point x="78" y="407"/>
      <point x="78" y="343" type="curve" smooth="yes"/>
      <point x="78" y="83" type="line" smooth="yes"/>
      <point x="78" y="39"/>
      <point x="72" y="30"/>
      <point x="27" y="18" type="curve"/>
      <point x="34" y="0" type="line"/>
    </contour>
    <contour>
      <point x="209" y="0" type="move" name="ogonek"/>
    </contour>
    <contour>
      <point x="127" y="467" type="move" name="top"/>
    </contour>
    <contour>
      <point x="13" y="455" type="move" name="topleft"/>
    </contour>
    <contour>
      <point x="127" y="0" type="move" name="bottom"/>
    </contour>
  </outline>
</glyph>
<glyph name="K" format="1">
  <advance width="454"/>
  <unicode hex="004B"/>
  <outline>
    <contour>
      <point x="212" y="0" type="line"/>
      <point x="219" y="12" type="line"/>
      <point x="182" y="45"/>
      <point x="176" y="60"/>
      <point x="176" y="122" type="curve" smooth="yes"/>
      <point x="176" y="368" type="line" smooth="yes"/>
      <point x="176" y="416"/>
      <point x="184" y="428"/>
      <point x="226" y="451" type="curve"/>
      <point x="219" y="467" type="line"/>
      <point x="45" y="467" type="line"/>
      <point x="37" y="454" type="line"/>
      <point x="75" y="422"/>
      <point x="80" y="407"/>
      <point x="80" y="343" type="curve" smooth="yes"/>
      <point x="80" y="83" type="line" smooth="yes"/>
      <point x="80" y="39"/>
      <point x="72" y="31"/>
      <point x="25" y="18" type="curve"/>
      <point x="32" y="0" type="line"/>
    </contour>
    <contour>
      <point x="411" y="-9"/>
      <point x="440" y="4"/>
      <point x="469" y="34" type="curve"/>
      <point x="461" y="45" type="line"/>
      <point x="448" y="35"/>
      <point x="435" y="29"/>
      <point x="424" y="29" type="curve" smooth="yes"/>
      <point x="409" y="29"/>
      <point x="401" y="36"/>
      <point x="394" y="53" type="curve" smooth="yes"/>
      <point x="348" y="169" type="line" smooth="yes"/>
      <point x="325" y="223"/>
      <point x="277" y="244"/>
      <point x="176" y="244" type="curve"/>
      <point x="176" y="230" type="line"/>
      <point x="213" y="230"/>
      <point x="223" y="206"/>
      <point x="235" y="178" type="curve" smooth="yes"/>
      <point x="273" y="80" type="line" smooth="yes"/>
      <point x="297" y="16"/>
      <point x="319" y="-9"/>
      <point x="373" y="-9" type="curve" smooth="yes"/>
    </contour>
    <contour>
      <point x="362" y="402" type="line" smooth="yes"/>
      <point x="382" y="424"/>
      <point x="397" y="434"/>
      <point x="415" y="442" type="curve" smooth="yes"/>
      <point x="438" y="449" type="line"/>
      <point x="432" y="467" type="line"/>
      <point x="314" y="467" type="line"/>
      <point x="301" y="456" type="line"/>
      <point x="307" y="445" type="line" smooth="yes"/>
      <point x="313" y="430"/>
      <point x="315" y="425"/>
      <point x="315" y="418" type="curve" smooth="yes"/>
      <point x="314" y="403"/>
      <point x="309" y="393"/>
      <point x="298" y="379" type="curve" smooth="yes"/>
      <point x="175" y="240" type="line"/>
      <point x="210" y="229" type="line"/>
    </contour>
    <contour>
      <point x="226" y="467" type="move" name="top"/>
    </contour>
    <contour>
      <point x="239" y="0" type="move" name="bottom"/>
    </contour>
  </outline>
</glyph>
<glyph name="X" format="1">
  <advance width="447"/>
  <unicode hex="0058"/>
  <outline>
    <contour>
      <point x="240" y="0" type="line"/>
      <point x="438" y="0" type="line"/>
      <point x="446" y="10" type="line"/>
      <point x="421" y="30"/>
      <point x="406" y="48"/>
      <point x="387" y="75" type="curve" smooth="yes"/>
      <point x="191" y="374" type="line" smooth="yes"/>
      <point x="179" y="393"/>
      <point x="172" y="410"/>
      <point x="172" y="420" type="curve" smooth="yes"/>
      <point x="172" y="432"/>
      <point x="181" y="440"/>
      <point x="200" y="445" type="curve" smooth="yes"/>
      <point x="215" y="449" type="line"/>
      <point x="210" y="467" type="line"/>
      <point x="12" y="467" type="line"/>
      <point x="4" y="456" type="line"/>
      <point x="25" y="439"/>
      <point x="46" y="415"/>
      <point x="65" y="387" type="curve" smooth="yes"/>
      <point x="259" y="92" type="line" smooth="yes"/>
      <point x="271" y="74"/>
      <point x="278" y="57"/>
      <point x="278" y="47" type="curve" smooth="yes"/>
      <point x="278" y="35"/>
      <point x="268" y="27"/>
      <point x="250" y="22" type="curve" smooth="yes"/>
      <point x="235" y="18" type="line"/>
    </contour>
    <contour>
      <point x="241" y="221" type="line"/>
      <point x="373" y="410" type="line" smooth="yes"/>
      <point x="387" y="430"/>
      <point x="398" y="439"/>
      <point x="419" y="445" type="curve" smooth="yes"/>
      <point x="434" y="449" type="line"/>
      <point x="428" y="467" type="line"/>
      <point x="321" y="467" type="line"/>
      <point x="309" y="456" type="line"/>
      <point x="315" y="445" type="line" smooth="yes"/>
      <point x="320" y="433"/>
      <point x="323" y="423"/>
      <point x="323" y="415" type="curve" smooth="yes"/>
      <point x="323" y="403"/>
      <point x="320" y="395"/>
      <point x="309" y="379" type="curve" smooth="yes"/>
      <point x="209" y="231" type="line"/>
    </contour>
    <contour>
      <point x="200" y="246" type="line"/>
      <point x="68" y="57" type="line" smooth="yes"/>
      <point x="54" y="37"/>
      <point x="43" y="28"/>
      <point x="22" y="22" type="curve" smooth="yes"/>
      <point x="7" y="18" type="line"/>
      <point x="13" y="0" type="line"/>
      <point x="120" y="0" type="line"/>
      <point x="132" y="10" type="line"/>
      <point x="127" y="22" type="line" smooth="yes"/>
      <point x="121" y="34"/>
      <point x="118" y="44"/>
      <point x="118" y="51" type="curve" smooth="yes"/>
      <point x="118" y="64"/>
      <point x="121" y="72"/>
      <point x="132" y="88" type="curve" smooth="yes"/>
      <point x="232" y="235" type="line"/>
    </contour>
  </outline>
</glyph>
<glyph name="Y" format="1">
  <advance width="405"/>
  <unicode hex="0059"/>
  <outline>
    <contour>
      <point x="152" y="220" type="line"/>
      <point x="152" y="131" type="line" smooth="yes"/>
      <point x="152" y="78"/>
      <point x="145" y="52"/>
      <point x="122" y="22" type="curve" smooth="yes"/>
      <point x="114" y="10" type="line"/>
      <point x="122" y="0" type="line"/>
      <point x="297" y="0" type="line"/>
      <point x="303" y="18" type="line"/>
      <point x="258" y="31"/>
      <point x="248" y="38"/>
      <point x="248" y="83" type="curve" smooth="yes"/>
      <point x="248" y="220" type="line"/>
    </contour>
    <contour>
      <point x="248" y="220" type="line"/>
      <point x="165" y="375" type="line" smooth="yes"/>
      <point x="149" y="405"/>
      <point x="145" y="414"/>
      <point x="145" y="422" type="curve" smooth="yes"/>
      <point x="145" y="433"/>
      <point x="155" y="441"/>
      <point x="174" y="445" type="curve" smooth="yes"/>
      <point x="189" y="449" type="line"/>
      <point x="184" y="467" type="line"/>
      <point x="1" y="467" type="line"/>
      <point x="-8" y="456" type="line"/>
      <point x="19" y="436"/>
      <point x="35" y="417"/>
      <point x="57" y="374" type="curve" smooth="yes"/>
      <point x="161" y="183" type="line"/>
      <point x="238" y="183" type="line"/>
      <point x="339" y="376" type="line" smooth="yes"/>
      <point x="352" y="400"/>
      <point x="369" y="425"/>
      <point x="385" y="445" type="curve" smooth="yes"/>
      <point x="395" y="456" type="line"/>
      <point x="387" y="467" type="line"/>
      <point x="272" y="467" type="line"/>
      <point x="266" y="449" type="line"/>
      <point x="285" y="445" type="line" smooth="yes"/>
      <point x="301" y="441"/>
      <point x="313" y="427"/>
      <point x="313" y="410" type="curve" smooth="yes"/>
      <point x="313" y="401"/>
      <point x="310" y="392"/>
      <point x="305" y="384" type="curve" smooth="yes"/>
      <point x="219" y="220" type="line"/>
    </contour>
    <contour>
      <point x="220" y="467" type="move" name="top"/>
    </contour>
    <contour>
      <point x="202" y="0" type="move" name="bottom"/>
    </contour>
    <contour>
      <point x="13" y="467" type="move" name="topleft"/>
    </contour>
  </outline>
</glyph>
<glyph name="bracketleft" format="1">
  <advance width="261"/>
  <unicode hex="005B"/>
  <outline>
    <contour>
      <point x="68" y="-73" type="line"/>
      <point x="256" y="-73" type="line"/>
      <point x="256" y="-46" type="line"/>
      <point x="204" y="-38" type="line" smooth="yes"/>
      <point x="176" y="-34"/>
      <point x="168" y="-25"/>
      <point x="168" y="-4" type="curve" smooth="yes"/>
      <point x="168" y="434" type="line" smooth="yes"/>
      <point x="168" y="456"/>
      <point x="176" y="464"/>
      <point x="204" y="469" type="curve" smooth="yes"/>
      <point x="256" y="476" type="line"/>
      <point x="256" y="503" type="line"/>
      <point x="68" y="503" type="line"/>
    </contour>
  </outline>
</glyph>
<glyph name="asciicircum" format="1">
  <advance width="404"/>
  <unicode hex="005E"/>
  <outline>
    <contour>
      <point x="174" y="467" type="line"/>
      <point x="62" y="259" type="line"/>
      <point x="115" y="259" type="line"/>
      <point x="201" y="424" type="line"/>
      <point x="288" y="259" type="line"/>
      <point x="341" y="259" type="line"/>
      <point x="229" y="467" type="line"/>
    </contour>
  </outline>
</glyph>
<glyph name="b" format="1">
  <advance width="395"/>
  <unicode hex="0062"/>
  <outline>
    <contour>
      <point x="243" y="303"/>
      <point x="271" y="252"/>
      <point x="271" y="157" type="curve" smooth="yes"/>
      <point x="271" y="61"/>
      <point x="244" y="14"/>
      <point x="188" y="14" type="curve" smooth="yes"/>
      <point x="171" y="14"/>
      <point x="156" y="18"/>
      <point x="143" y="24" type="curve"/>
      <point x="143" y="469" type="line" smooth="yes"/>
      <point x="143" y="482"/>
      <point x="132" y="490"/>
      <point x="115" y="490" type="curve" smooth="yes"/>
      <point x="75" y="490"/>
      <point x="31" y="475"/>
      <point x="5" y="451" type="curve"/>
      <point x="8" y="441" type="line"/>
      <point x="39" y="441" type="line" smooth="yes"/>
      <point x="49" y="441"/>
      <point x="52" y="437"/>
      <point x="52" y="427" type="curve" smooth="yes"/>
      <point x="52" y="32" type="line"/>
      <point x="83" y="7"/>
      <point x="135" y="-9"/>
      <point x="183" y="-9" type="curve" smooth="yes"/>
      <point x="291" y="-9"/>
      <point x="371" y="69"/>
      <point x="371" y="174" type="curve" smooth="yes"/>
      <point x="371" y="265"/>
      <point x="311" y="332"/>
      <point x="229" y="332" type="curve" smooth="yes"/>
      <point x="191" y="332"/>
      <point x="157" y="319"/>
      <point x="137" y="294" type="curve"/>
      <point x="142" y="287" type="line"/>
      <point x="155" y="297"/>
      <point x="173" y="303"/>
      <point x="190" y="303" type="curve" smooth="yes"/>
    </contour>
  </outline>
</glyph>
<glyph name="paragraph" format="1">
  <advance width="336"/>
  <unicode hex="00B6"/>
  <outline>
    <contour>
      <point x="108" y="46"/>
      <point x="118" y="73"/>
      <point x="136" y="89" type="curve"/>
      <point x="133" y="97" type="line"/>
      <point x="69" y="92"/>
      <point x="22" y="55"/>
      <point x="22" y="8" type="curve" smooth="yes"/>
      <point x="22" y="-36"/>
      <point x="65" y="-66"/>
      <point x="128" y="-66" type="curve" smooth="yes"/>
      <point x="234" y="-66"/>
      <point x="283" y="-10"/>
      <point x="283" y="114" type="curve" smooth="yes"/>
      <point x="283" y="356" type="line" smooth="yes"/>
      <point x="283" y="366"/>
      <point x="285" y="372"/>
      <point x="292" y="381" type="curve" smooth="yes"/>
      <point x="300" y="393" type="line"/>
      <point x="293" y="401" type="line"/>
      <point x="250" y="404"/>
      <point x="201" y="418"/>
      <point x="146" y="418" type="curve" smooth="yes"/>
      <point x="70" y="418"/>
      <point x="22" y="370"/>
      <point x="22" y="297" type="curve" smooth="yes"/>
      <point x="22" y="220"/>
      <point x="90" y="160"/>
      <point x="188" y="148" type="curve"/>
      <point x="188" y="30" type="line" smooth="yes"/>
      <point x="188" y="-15"/>
      <point x="171" y="-42"/>
      <point x="144" y="-42" type="curve" smooth="yes"/>
      <point x="122" y="-42"/>
      <point x="108" y="-20"/>
      <point x="108" y="13" type="curve" smooth="yes"/>
    </contour>
  </outline>
</glyph>
<glyph name="eth" format="1">
  <advance width="394"/>
  <unicode hex="00F0"/>
  <outline>
    <contour>
      <point x="109" y="466"/>
      <point x="127" y="489"/>
      <point x="154" y="489" type="curve" smooth="yes"/>
      <point x="198" y="489"/>
      <point x="241" y="430"/>
      <point x="261" y="287" type="curve"/>
      <point x="257" y="285" type="line"/>
      <point x="234" y="308"/>
      <point x="207" y="319"/>
      <point x="171" y="319" type="curve" smooth="yes"/>
      <point x="80" y="319"/>
      <point x="23" y="254"/>
      <point x="23" y="155" type="curve" smooth="yes"/>
      <point x="23" y="55"/>
      <point x="89" y="-9"/>
      <point x="196" y="-9" type="curve" smooth="yes"/>
      <point x="306" y="-9"/>
      <point x="369" y="58"/>
      <point x="369" y="175" type="curve" smooth="yes"/>
      <point x="369" y="355"/>
      <point x="271" y="514"/>
      <point x="160" y="514" type="curve" smooth="yes"/>
      <point x="84" y="514"/>
      <point x="31" y="478"/>
      <point x="31" y="426" type="curve" smooth="yes"/>
      <point x="31" y="379"/>
      <point x="69" y="349"/>
      <point x="130" y="349" type="curve"/>
      <point x="133" y="358" type="line"/>
      <point x="118" y="372"/>
      <point x="109" y="400"/>
      <point x="109" y="430" type="curve" smooth="yes"/>
    </contour>
    <contour>
      <point x="122" y="233"/>
      <point x="152" y="287"/>
      <point x="198" y="287" type="curve" smooth="yes"/>
      <point x="243" y="287"/>
      <point x="274" y="230"/>
      <point x="274" y="146" type="curve" smooth="yes"/>
      <point x="274" y="67"/>
      <point x="244" y="13"/>
      <point x="199" y="13" type="curve" smooth="yes"/>
      <point x="153" y="13"/>
      <point x="122" y="67"/>
      <point x="122" y="149" type="curve" smooth="yes"/>
    </contour>
    <component base="eslash" xOffset="160" yOffset="211" xScale="0.9" yScale="0.9"/>
  </outline>
</glyph>
<glyph name="uni0302" format="1">
  <advance width="242"/>
  <unicode hex="0302"/>
  <outline>
    <contour>
      <point x="104" y="491" type="line"/>
      <point x="80" y="472"/>
      <point x="49" y="428"/>
      <point x="24" y="382" type="curve"/>
      <point x="39" y="369" type="line"/>
      <point x="132" y="432" type="line"/>
      <point x="110" y="432" type="line"/>
      <point x="203" y="369" type="line"/>
      <point x="218" y="382" type="line"/>
      <point x="192" y="428"/>
      <point x="162" y="472"/>
      <point x="138" y="491" type="curve"/>
    </contour>
    <contour>
      <point x="121" y="491" type="move" name="top"/>
    </contour>
    <contour>
      <point x="121" y="325" type="move" name="_top"/>
    </contour>
  </outline>
</glyph>
<glyph name="uni030B" format="1">
  <advance width="316"/>
  <unicode hex="030B"/>
  <outline>
    <contour>
      <point x="24" y="386" type="line"/>
      <point x="36" y="371" type="line"/>
      <point x="116" y="400" type="line" smooth="yes"/>
      <point x="147" y="411"/>
      <point x="157" y="428"/>
      <point x="157" y="449" type="curve" smooth="yes"/>
      <point x="157" y="468"/>
      <point x="144" y="483"/>
      <point x="122" y="492" type="curve"/>
    </contour>
    <contour>
      <point x="158" y="386" type="line"/>
      <point x="170" y="371" type="line"/>
      <point x="250" y="400" type="line" smooth="yes"/>
      <point x="281" y="411"/>
      <point x="292" y="428"/>
      <point x="292" y="449" type="curve" smooth="yes"/>
      <point x="292" y="468"/>
      <point x="278" y="483"/>
      <point x="257" y="492" type="curve"/>
    </contour>
    <contour>
      <point x="158" y="492" type="move" name="top"/>
    </contour>
    <contour>
      <point x="158" y="325" type="move" name="_top"/>
    </contour>
  </outline>
</glyph>
<glyph name="uni0335" format="1">
  <advance width="298"/>
  <unicode hex="0335"/>
  <outline>
    <contour>
      <point x="274" y="216" type="line"/>
      <point x="284" y="226"/>
      <point x="287" y="243"/>
      <point x="287" y="257" type="curve"/>
      <point x="23" y="257" type="line"/>
      <point x="13" y="248"/>
      <point x="11" y="230"/>
      <point x="11" y="216" type="curve"/>
    </contour>
    <contour>
      <point x="149" y="237" type="move" name="_center"/>
    </contour>
  </outline>
</glyph>
<glyph name="uni0338" format="1">
  <advance width="241"/>
  <unicode hex="0338"/>
  <outline>
    <contour>
      <point x="46" y="-41" type="line"/>
      <point x="235" y="508" type="line"/>
      <point x="194" y="508" type="line"/>
      <point x="7" y="-41" type="line"/>
    </contour>
    <contour>
      <point x="121" y="233" type="move" name="_center"/>
    </contour>
  </outline>
</glyph>
<glyph name="pi" format="1">
  <advance width="413"/>
  <unicode hex="03C0"/>
  <outline>
    <contour>
      <point x="76" y="66" type="line" smooth="yes"/>
      <point x="70" y="33"/>
      <point x="65" y="25"/>
      <point x="42" y="20" type="curve" smooth="yes"/>
      <point x="27" y="17" type="line"/>
      <point x="31" y="0" type="line"/>
      <point x="141" y="0" type="line"/>
      <point x="150" y="10" type="line"/>
      <point x="144" y="20" type="line" smooth="yes"/>
      <point x="137" y="33"/>
      <point x="134" y="46"/>
      <point x="134" y="62" type="curve" smooth="yes"/>
      <point x="134" y="74"/>
      <point x="135" y="87"/>
      <point x="138" y="104" type="curve" smooth="yes"/>
      <point x="168" y="275" type="line"/>
      <point x="281" y="275" type="line"/>
      <point x="244" y="60" type="line" smooth="yes"/>
      <point x="242" y="49"/>
      <point x="241" y="39"/>
      <point x="241" y="31" type="curve" smooth="yes"/>
      <point x="241" y="3"/>
      <point x="253" y="-9"/>
      <point x="279" y="-9" type="curve" smooth="yes"/>
      <point x="300" y="-9"/>
      <point x="331" y="7"/>
      <point x="358" y="32" type="curve"/>
      <point x="352" y="42" type="line"/>
      <point x="338" y="33"/>
      <point x="323" y="27"/>
      <point x="312" y="27" type="curve" smooth="yes"/>
      <point x="302" y="27"/>
      <point x="297" y="33"/>
      <point x="297" y="46" type="curve" smooth="yes"/>
      <point x="297" y="49"/>
      <point x="298" y="53"/>
      <point x="298" y="57" type="curve" smooth="yes"/>
      <point x="337" y="275" type="line"/>
      <point x="404" y="305" type="line"/>
      <point x="407" y="323" type="line"/>
      <point x="120" y="323" type="line" smooth="yes"/>
      <point x="72" y="323"/>
      <point x="54" y="315"/>
      <point x="12" y="226" type="curve"/>
      <point x="23" y="220" type="line"/>
      <point x="57" y="260"/>
      <point x="85" y="275"/>
      <point x="113" y="275" type="curve"/>
    </contour>
  </outline>
</glyph>
<glyph name="guilsinglleft" format="1">
  <advance width="191"/>
  <unicode hex="2039"/>
  <outline>
    <contour>
      <point x="158" y="109"/>
      <point x="115" y="149"/>
      <point x="81" y="181" type="curve"/>
      <point x="115" y="214"/>
      <point x="158" y="253"/>
      <point x="172" y="275" type="curve"/>
      <point x="151" y="310"/>
      <point x="122" y="320"/>
      <point x="100" y="323" type="curve"/>
      <point x="42" y="230"/>
      <point x="24" y="198"/>
      <point x="24" y="181" type="curve" smooth="yes"/>
      <point x="24" y="163"/>
      <point x="45" y="129"/>
      <point x="100" y="40" type="curve"/>
      <point x="122" y="43"/>
      <point x="151" y="51"/>
      <point x="172" y="88" type="curve"/>
    </contour>
  </outline>
</glyph>
<glyph name="partialdiff" format="1">
  <advance width="361"/>
  <unicode hex="2202"/>
  <outline>
    <contour>
      <point x="22" y="41"/>
      <point x="72" y="-9"/>
      <point x="155" y="-9" type="curve" smooth="yes"/>
      <point x="284" y="-9"/>
      <point x="336" y="103"/>
      <point x="336" y="209" type="curve" smooth="yes"/>
      <point x="336" y="315"/>
      <point x="296" y="457"/>
      <point x="127" y="511" type="curve"/>
      <point x="113" y="481" type="line"/>
      <point x="200" y="442"/>
      <point x="248" y="379"/>
      <point x="266" y="297" type="curve"/>
      <point x="248" y="312"/>
      <point x="225" y="319"/>
      <point x="201" y="319" type="curve" smooth="yes"/>
      <point x="88" y="319"/>
      <point x="22" y="220"/>
      <point x="22" y="122" type="curve" smooth="yes"/>
    </contour>
    <contour>
      <point x="239" y="285"/>
      <point x="268" y="242"/>
      <point x="268" y="179" type="curve" smooth="yes"/>
      <point x="268" y="86"/>
      <point x="220" y="26"/>
      <point x="164" y="26" type="curve" smooth="yes"/>
      <point x="117" y="26"/>
      <point x="87" y="64"/>
      <point x="87" y="125" type="curve" smooth="yes"/>
      <point x="87" y="189"/>
      <point x="117" y="285"/>
      <point x="191" y="285" type="curve" smooth="yes"/>
    </contour>
  </outline>
</glyph>
<glyph name="integral" format="1">
  <advance width="292"/>
  <unicode hex="222B"/>
  <outline>
    <contour>
      <point x="176" y="453" type="line" smooth="yes"/>
      <point x="176" y="484"/>
      <point x="192" y="505"/>
      <point x="215" y="505" type="curve" smooth="yes"/>
      <point x="237" y="505"/>
      <point x="255" y="483"/>
      <point x="255" y="453" type="curve"/>
      <point x="263" y="447"/>
      <point x="274" y="442"/>
      <point x="285" y="442" type="curve" smooth="yes"/>
      <point x="301" y="442"/>
      <point x="311" y="454"/>
      <point x="311" y="472" type="curve" smooth="yes"/>
      <point x="311" y="507"/>
      <point x="274" y="536"/>
      <point x="229" y="536" type="curve" smooth="yes"/>
      <point x="160" y="536"/>
      <point x="117" y="482"/>
      <point x="117" y="393" type="curve" smooth="yes"/>
      <point x="117" y="-39" type="line" smooth="yes"/>
      <point x="117" y="-70"/>
      <point x="100" y="-91"/>
      <point x="77" y="-91" type="curve" smooth="yes"/>
      <point x="55" y="-91"/>
      <point x="37" y="-69"/>
      <point x="37" y="-39" type="curve"/>
      <point x="29" y="-33"/>
      <point x="18" y="-28"/>
      <point x="7" y="-28" type="curve" smooth="yes"/>
      <point x="-9" y="-28"/>
      <point x="-20" y="-40"/>
      <point x="-20" y="-58" type="curve" smooth="yes"/>
      <point x="-20" y="-93"/>
      <point x="18" y="-122"/>
      <point x="62" y="-122" type="curve" smooth="yes"/>
      <point x="132" y="-122"/>
      <point x="175" y="-68"/>
      <point x="175" y="21" type="curve" smooth="yes"/>
    </contour>
  </outline>
</glyph>
